<svg width="300" height="300" viewBox="0 0 300 300" fill="none" xmlns="http://www.w3.org/2000/svg">
<g clip-path="url(#clip0_235_549)">
<path d="M150 1C180.858 1 205.588 2.65476 225.333 7.04297C245.067 11.4287 259.761 18.5309 270.615 29.3848C281.469 40.2386 288.571 54.9333 292.957 74.667C297.345 94.4122 299 119.142 299 150C299 180.858 297.345 205.588 292.957 225.333C288.571 245.067 281.469 259.761 270.615 270.615C259.761 281.469 245.067 288.571 225.333 292.957C205.588 297.345 180.858 299 150 299C119.142 299 94.4122 297.345 74.667 292.957C54.9333 288.571 40.2386 281.469 29.3848 270.615C18.5309 259.761 11.4287 245.067 7.04297 225.333C2.65476 205.588 1 180.858 1 150C1 119.142 2.65476 94.4122 7.04297 74.667C11.4287 54.9333 18.5309 40.2386 29.3848 29.3848C40.2386 18.5309 54.9333 11.4287 74.667 7.04297C94.4122 2.65476 119.142 1 150 1Z" fill="white" stroke="#EEEEEE" stroke-width="2"/>
<path d="M180 80C202.091 80 220 97.9086 220 120V180C220 202.091 202.091 220 180 220H120C97.9086 220 80 202.091 80 180V120C80 97.9086 97.9086 80 120 80H180ZM118 113C115.239 113 113 115.239 113 118V182C113 184.761 115.239 187 118 187H122C124.761 187 127 184.761 127 182V118C127 115.239 124.761 113 122 113H118ZM148 113C145.239 113 143 115.239 143 118V182C143 184.761 145.239 187 148 187H152C154.761 187 157 184.761 157 182V118C157 115.239 154.761 113 152 113H148ZM178 113C175.239 113 173 115.239 173 118V182C173 184.761 175.239 187 178 187H182C184.761 187 187 184.761 187 182V118C187 115.239 184.761 113 182 113H178Z" fill="#71717A"/>
</g>
<defs>
<clipPath id="clip0_235_549">
<rect width="300" height="300" fill="white"/>
</clipPath>
</defs>
</svg>
