<svg width="300" height="300" viewBox="0 0 300 300" fill="none" xmlns="http://www.w3.org/2000/svg">
<g clip-path="url(#clip0_265_53)">
<path d="M150 0C273.525 0 300 26.475 300 150C300 182.009 298.22 207.501 293.437 227.705C285.106 219.83 273.868 215 261.5 215C235.819 215 215 235.819 215 261.5C215 273.868 219.83 285.106 227.705 293.437C207.501 298.22 182.009 300 150 300C26.475 300 0 273.525 0 150C0 26.475 26.475 0 150 0Z" fill="white"/>
<g clip-path="url(#clip1_265_53)">
<circle cx="261.5" cy="261.5" r="38.5" fill="white"/>
<circle cx="261.5" cy="261.5" r="38.5" stroke="black"/>
<path d="M240.698 257.753C240.602 257.753 240.579 257.704 240.626 257.63L241.127 256.961C241.175 256.887 241.294 256.837 241.39 256.837H249.907C250.002 256.837 250.026 256.911 249.978 256.986L249.573 257.63C249.525 257.704 249.406 257.778 249.334 257.778L240.698 257.753Z" fill="#00ACD7"/>
<path d="M237.095 260.031C237 260.031 236.976 259.982 237.024 259.908L237.525 259.239C237.573 259.165 237.692 259.115 237.787 259.115H248.666C248.762 259.115 248.809 259.19 248.786 259.264L248.595 259.858C248.571 259.957 248.475 260.007 248.38 260.007L237.095 260.031Z" fill="#00ACD7"/>
<path d="M242.869 262.309C242.773 262.309 242.75 262.235 242.797 262.161L243.131 261.542C243.179 261.467 243.275 261.393 243.37 261.393H248.141C248.237 261.393 248.285 261.467 248.285 261.566L248.237 262.161C248.237 262.26 248.141 262.334 248.07 262.334L242.869 262.309Z" fill="#00ACD7"/>
<path d="M267.633 257.307C266.13 257.704 265.104 258.001 263.625 258.397C263.267 258.496 263.243 258.521 262.933 258.149C262.575 257.728 262.313 257.456 261.812 257.208C260.309 256.441 258.853 256.664 257.493 257.58C255.871 258.669 255.036 260.279 255.06 262.284C255.084 264.265 256.396 265.9 258.281 266.172C259.903 266.395 261.263 265.8 262.336 264.538C262.551 264.265 262.742 263.968 262.981 263.622C262.122 263.622 261.048 263.622 258.376 263.622C257.875 263.622 257.756 263.3 257.923 262.879C258.233 262.111 258.806 260.823 259.14 260.18C259.211 260.031 259.378 259.784 259.736 259.784C260.953 259.784 265.438 259.784 268.42 259.784C268.372 260.452 268.372 261.121 268.277 261.789C268.015 263.572 267.37 265.206 266.321 266.642C264.603 268.995 262.36 270.456 259.521 270.852C257.183 271.174 255.012 270.703 253.104 269.218C251.338 267.831 250.336 265.999 250.074 263.721C249.764 261.022 250.527 258.595 252.102 256.466C253.796 254.163 256.038 252.702 258.782 252.182C261.024 251.761 263.171 252.033 265.104 253.395C266.368 254.262 267.275 255.45 267.871 256.886C268.015 257.109 267.919 257.233 267.633 257.307Z" fill="#00ACD7"/>
<path d="M275.53 271C273.359 270.951 271.378 270.307 269.708 268.821C268.301 267.558 267.418 265.949 267.132 264.042C266.702 261.244 267.442 258.768 269.064 256.564C270.806 254.187 272.905 252.949 275.744 252.429C278.178 251.983 280.468 252.231 282.544 253.692C284.428 255.029 285.597 256.837 285.908 259.214C286.313 262.556 285.383 265.28 283.164 267.608C281.589 269.267 279.657 270.307 277.438 270.777C276.794 270.901 276.15 270.926 275.53 271ZM281.208 260.997C281.184 260.675 281.184 260.427 281.136 260.179C280.707 257.728 278.536 256.341 276.269 256.886C274.05 257.406 272.619 258.867 272.094 261.195C271.665 263.126 272.571 265.082 274.289 265.874C275.601 266.469 276.913 266.394 278.178 265.726C280.062 264.711 281.088 263.126 281.208 260.997Z" fill="#00ACD7"/>
</g>
<path d="M180 80C202.091 80 220 97.9086 220 120V180C220 202.091 202.091 220 180 220H120C97.9086 220 80 202.091 80 180V120C80 97.9086 97.9086 80 120 80H180ZM118 113C115.239 113 113 115.239 113 118V182C113 184.761 115.239 187 118 187H122C124.761 187 127 184.761 127 182V118C127 115.239 124.761 113 122 113H118ZM148 113C145.239 113 143 115.239 143 118V182C143 184.761 145.239 187 148 187H152C154.761 187 157 184.761 157 182V118C157 115.239 154.761 113 152 113H148ZM178 113C175.239 113 173 115.239 173 118V182C173 184.761 175.239 187 178 187H182C184.761 187 187 184.761 187 182V118C187 115.239 184.761 113 182 113H178Z" fill="#71717A"/>
</g>
<defs>
<clipPath id="clip0_265_53">
<rect width="300" height="300" fill="white"/>
</clipPath>
<clipPath id="clip1_265_53">
<rect width="77" height="77" fill="white" transform="translate(223 223)"/>
</clipPath>
</defs>
</svg>
